<svg width="100" height="100" viewBox="0 0 100 100" fill="none" xmlns="http://www.w3.org/2000/svg">
<rect width="100" height="100" rx="20" fill="#4096FD"/>
<path fill-rule="evenodd" clip-rule="evenodd" d="M65.019 15V29.4689H65.0186L65.0188 29.4691L51.8898 36.4681L51.8898 44.0442L70.9212 33.0564L77.0771 36.6183L68.6383 41.4905L75.3156 45.6796L81.6046 42.0486L87.7605 45.6105L75.2301 52.845L75.2299 52.8447L75.2298 52.8449L62.604 44.9744L56.0429 48.7624L75.0743 59.7502L75.0676 66.8623L66.6287 61.9902L66.3395 69.8674L72.6285 73.4984L72.6218 80.6105L60.0913 73.3761L60.0915 73.3757L60.0913 73.3758L60.5945 58.5063L54.0334 54.7182L54.0334 76.6938L47.8707 80.244V70.4997L40.9042 74.1878V81.4498L34.7415 85V70.5311H34.7419L34.7418 70.5309L47.8707 63.5319L47.8707 55.9558L28.8393 66.9436L22.6834 63.3817L31.1222 58.5095L24.4449 54.3204L18.1559 57.9514L12 54.3895L24.5304 47.155L24.5306 47.1553L24.5307 47.1551L37.1565 55.0256L43.7176 51.2376L33.227 45.1808L24.6862 40.2498L24.693 33.1377L33.1318 38.0098L33.421 30.1326L27.132 26.5016L27.1388 19.3895L39.6692 26.6239L39.669 26.6243L39.6692 26.6242L39.1661 41.4937L45.7271 45.2817L45.7272 23.3062L51.8898 19.756V29.5003L58.8563 25.8122V18.5502L65.019 15Z" fill="white"/>
</svg>
